<svg xmlns="http://www.w3.org/2000/svg" width="64" height="64" viewBox="0 0 64 64" fill="none">
  <defs>
    <linearGradient id="bg" x1="8" y1="4" x2="56" y2="60" gradientUnits="userSpaceOnUse">
      <stop offset="0" stop-color="#BFF0FF" />
      <stop offset="0.55" stop-color="#FFB77D" />
      <stop offset="1" stop-color="#EAE5FF" />
    </linearGradient>
    <radialGradient id="glow" cx="0" cy="0" r="1" gradientUnits="userSpaceOnUse" gradientTransform="translate(22 18) rotate(55) scale(42 42)">
      <stop stop-color="#BFF0FF" stop-opacity="0.55" />
      <stop offset="1" stop-color="#131313" stop-opacity="0" />
    </radialGradient>
    <filter id="soft" x="-40%" y="-40%" width="180%" height="180%" color-interpolation-filters="sRGB">
      <feGaussianBlur stdDeviation="1.25" />
    </filter>
  </defs>

  <rect x="6" y="6" width="52" height="52" rx="14" fill="#131313" />
  <rect x="6" y="6" width="52" height="52" rx="14" fill="url(#glow)" />
  <rect x="8" y="8" width="48" height="48" rx="12" fill="url(#bg)" opacity="0.18" />

  <!-- Stylized S -->
  <path
    d="M41.6 22.7c-1.7-3.6-5.5-5.8-10.4-5.8-6.6 0-11.1 3.5-11.1 8.7 0 4 2.5 6.2 8.5 7.6l3.4.8c3.4.8 4.7 1.6 4.7 3.2 0 1.9-2 3.3-5.3 3.3-3.1 0-5.7-1.2-7-3.4"
    stroke="#E5E2E1"
    stroke-width="4.6"
    stroke-linecap="round"
    stroke-linejoin="round"
    opacity="0.92"
  />
  <path
    d="M41.6 22.7c-1.7-3.6-5.5-5.8-10.4-5.8-6.6 0-11.1 3.5-11.1 8.7 0 4 2.5 6.2 8.5 7.6l3.4.8c3.4.8 4.7 1.6 4.7 3.2 0 1.9-2 3.3-5.3 3.3-3.1 0-5.7-1.2-7-3.4"
    stroke="url(#bg)"
    stroke-width="3.2"
    stroke-linecap="round"
    stroke-linejoin="round"
  />

  <!-- Small spark -->
  <path
    d="M49.2 15.2l1.1 2.4 2.4 1.1-2.4 1.1-1.1 2.4-1.1-2.4-2.4-1.1 2.4-1.1 1.1-2.4z"
    fill="#BFF0FF"
    filter="url(#soft)"
    opacity="0.95"
  />
</svg>