<?xml version="1.0" encoding="UTF-8" standalone="no"?><!DOCTYPE svg PUBLIC "-//W3C//DTD SVG 1.1//EN" "http://www.w3.org/Graphics/SVG/1.1/DTD/svg11.dtd"><svg width="100%" height="100%" viewBox="0 0 36 36" version="1.1" xmlns="http://www.w3.org/2000/svg" xmlns:xlink="http://www.w3.org/1999/xlink" xml:space="preserve" xmlns:serif="http://www.serif.com/" style="fill-rule:evenodd;clip-rule:evenodd;stroke-linejoin:round;stroke-miterlimit:2;"><path d="M35.25,9.375l0,17.25c0,4.76 -3.865,8.625 -8.625,8.625l-17.25,0c-4.76,0 -8.625,-3.865 -8.625,-8.625l0,-17.25c0,-4.76 3.865,-8.625 8.625,-8.625l17.25,0c4.76,0 8.625,3.865 8.625,8.625Z" style="fill:#ebebeb;"/><path d="M33.75,10.295l0,15.75c0,4.346 -3.529,7.875 -7.875,7.875l-15.75,0c-4.346,0 -7.875,-3.529 -7.875,-7.875l0,-15.75c0,-4.346 3.529,-7.875 7.875,-7.875l15.75,0c4.346,0 7.875,3.529 7.875,7.875Z"/><path d="M8.154,25.325l9.539,-15.467l3.543,5.791l1.158,-1.022l5.451,8.926c0,0 -9.316,-1.023 -19.418,2.589c0,0 4.396,-1.83 6.473,-2.862c2.077,-1.032 4.358,-2.334 1.022,-1.976l4.429,-2.93l4.769,3.134l-2.93,-5.383l-1.158,1.09l-3.134,-4.974l-4.156,5.86l3.066,-2.317l2.725,1.635l-11.379,7.904Z" style="fill:#fff;"/></svg>