<?xml version="1.0" encoding="UTF-8" standalone="no"?><!DOCTYPE svg PUBLIC "-//W3C//DTD SVG 1.1//EN" "http://www.w3.org/Graphics/SVG/1.1/DTD/svg11.dtd"><svg width="100%" height="100%" viewBox="0 0 500 200" version="1.1" xmlns="http://www.w3.org/2000/svg" xmlns:xlink="http://www.w3.org/1999/xlink" xml:space="preserve" xmlns:serif="http://www.serif.com/" style="fill-rule:evenodd;clip-rule:evenodd;stroke-linejoin:round;stroke-miterlimit:2;"><g><g><g><path d="M28.959,157.897l17.936,-1.124c0.388,2.913 1.179,5.132 2.372,6.658c1.942,2.469 4.716,3.704 8.323,3.704c2.691,0 4.765,-0.631 6.221,-1.893c1.456,-1.262 2.185,-2.726 2.185,-4.39c0,-1.581 -0.694,-2.996 -2.081,-4.245c-1.387,-1.248 -4.605,-2.427 -9.654,-3.537c-8.267,-1.859 -14.163,-4.328 -17.686,-7.407c-3.551,-3.079 -5.327,-7.005 -5.327,-11.777c0,-3.135 0.909,-6.096 2.726,-8.885c1.817,-2.788 4.55,-4.98 8.198,-6.575c3.648,-1.595 8.649,-2.393 15.002,-2.393c7.796,0 13.74,1.45 17.832,4.349c4.092,2.899 6.526,7.511 7.303,13.837l-17.769,1.04c-0.472,-2.747 -1.463,-4.744 -2.975,-5.992c-1.512,-1.248 -3.6,-1.873 -6.263,-1.873c-2.192,0 -3.842,0.465 -4.952,1.394c-1.11,0.929 -1.665,2.06 -1.665,3.392c0,0.971 0.458,1.845 1.373,2.622c0.888,0.805 2.996,1.554 6.325,2.247c8.24,1.776 14.142,3.572 17.707,5.389c3.565,1.817 6.159,4.071 7.782,6.762c1.623,2.691 2.434,5.701 2.434,9.03c0,3.912 -1.082,7.518 -3.246,10.82c-2.164,3.301 -5.188,5.805 -9.072,7.511c-3.884,1.706 -8.781,2.559 -14.69,2.559c-10.376,0 -17.561,-1.997 -21.556,-5.992c-3.995,-3.995 -6.256,-9.072 -6.783,-15.231Z" style="fill-rule:nonzero;"/><path d="M87.329,117.074l16.937,0l0,11.527l-16.937,0l0,-11.527Zm0,16.812l16.937,0l0,44.194l-16.937,0l0,-44.194Z" style="fill-rule:nonzero;"/><path d="M158.182,160.186l-33.957,0c0.305,2.719 1.04,4.744 2.206,6.076c1.637,1.914 3.773,2.871 6.409,2.871c1.665,0 3.246,-0.416 4.744,-1.248c0.916,-0.527 1.9,-1.456 2.955,-2.788l16.687,1.54c-2.552,4.439 -5.632,7.622 -9.238,9.55c-3.607,1.928 -8.781,2.892 -15.522,2.892c-5.854,0 -10.459,-0.825 -13.816,-2.476c-3.357,-1.651 -6.138,-4.272 -8.344,-7.865c-2.206,-3.593 -3.308,-7.816 -3.308,-12.671c0,-6.908 2.212,-12.498 6.637,-16.77c4.425,-4.272 10.535,-6.409 18.331,-6.409c6.325,0 11.319,0.957 14.981,2.871c3.662,1.914 6.45,4.688 8.364,8.323c1.914,3.634 2.871,8.364 2.871,14.19l0,1.914Zm-17.228,-8.115c-0.333,-3.274 -1.214,-5.618 -2.642,-7.033c-1.429,-1.415 -3.308,-2.122 -5.639,-2.122c-2.691,0 -4.841,1.068 -6.45,3.204c-1.026,1.332 -1.678,3.315 -1.956,5.951l16.687,0Z" style="fill-rule:nonzero;"/><path d="M160.165,133.886l15.855,0l0,7.241c1.526,-3.135 3.1,-5.292 4.723,-6.471c1.623,-1.179 3.627,-1.769 6.013,-1.769c2.497,0 5.229,0.777 8.198,2.33l-5.243,12.068c-1.997,-0.832 -3.579,-1.248 -4.744,-1.248c-2.219,0 -3.939,0.916 -5.16,2.747c-1.748,2.58 -2.622,7.407 -2.622,14.482l0,14.815l-17.02,0l0,-44.194Z" style="fill-rule:nonzero;"/><path d="M195.605,133.886l15.855,0l0,7.241c1.526,-3.135 3.1,-5.292 4.723,-6.471c1.623,-1.179 3.627,-1.769 6.013,-1.769c2.497,0 5.229,0.777 8.198,2.33l-5.243,12.068c-1.997,-0.832 -3.579,-1.248 -4.744,-1.248c-2.219,0 -3.939,0.916 -5.16,2.747c-1.748,2.58 -2.622,7.407 -2.622,14.482l0,14.815l-17.02,0l0,-44.194Z" style="fill-rule:nonzero;"/><path d="M244.195,148.201l-16.188,-1.706c0.61,-2.83 1.491,-5.056 2.642,-6.679c1.151,-1.623 2.809,-3.031 4.973,-4.224c1.554,-0.86 3.69,-1.526 6.409,-1.997c2.719,-0.472 5.659,-0.707 8.822,-0.707c5.077,0 9.155,0.284 12.234,0.853c3.079,0.569 5.646,1.755 7.699,3.558c1.443,1.248 2.58,3.017 3.412,5.306c0.832,2.289 1.248,4.473 1.248,6.554l0,19.517c0,2.081 0.132,3.711 0.395,4.89c0.264,1.179 0.839,2.684 1.727,4.515l-15.897,0c-0.638,-1.137 -1.054,-2.004 -1.248,-2.601c-0.194,-0.596 -0.388,-1.533 -0.583,-2.809c-2.219,2.136 -4.425,3.662 -6.617,4.578c-2.996,1.221 -6.478,1.831 -10.445,1.831c-5.271,0 -9.273,-1.221 -12.006,-3.662c-2.733,-2.441 -4.099,-5.451 -4.099,-9.03c0,-3.357 0.985,-6.117 2.955,-8.281c1.97,-2.164 5.604,-3.773 10.903,-4.827c6.353,-1.276 10.473,-2.171 12.359,-2.684c1.886,-0.513 3.884,-1.186 5.992,-2.018c0,-2.081 -0.43,-3.537 -1.29,-4.369c-0.86,-0.832 -2.372,-1.248 -4.536,-1.248c-2.774,0 -4.855,0.444 -6.242,1.332c-1.082,0.694 -1.956,1.997 -2.622,3.912Zm14.69,8.905c-2.33,0.832 -4.758,1.567 -7.282,2.206c-3.44,0.916 -5.618,1.817 -6.533,2.705c-0.943,0.916 -1.415,1.956 -1.415,3.121c0,1.332 0.465,2.421 1.394,3.267c0.929,0.846 2.296,1.269 4.099,1.269c1.886,0 3.641,-0.458 5.264,-1.373c1.623,-0.916 2.774,-2.032 3.454,-3.35c0.68,-1.318 1.02,-3.031 1.02,-5.139l0,-2.705Z" style="fill-rule:nonzero;"/><rect x="302.632" y="117.074" width="16.978" height="61.006" style="fill-rule:nonzero;"/><path d="M339.903,148.201l-16.188,-1.706c0.61,-2.83 1.491,-5.056 2.642,-6.679c1.151,-1.623 2.809,-3.031 4.973,-4.224c1.554,-0.86 3.69,-1.526 6.409,-1.997c2.719,-0.472 5.659,-0.707 8.822,-0.707c5.077,0 9.155,0.284 12.234,0.853c3.079,0.569 5.646,1.755 7.699,3.558c1.443,1.248 2.58,3.017 3.412,5.306c0.832,2.289 1.248,4.473 1.248,6.554l0,19.517c0,2.081 0.132,3.711 0.395,4.89c0.264,1.179 0.839,2.684 1.727,4.515l-15.897,0c-0.638,-1.137 -1.054,-2.004 -1.248,-2.601c-0.194,-0.596 -0.388,-1.533 -0.583,-2.809c-2.219,2.136 -4.425,3.662 -6.617,4.578c-2.996,1.221 -6.478,1.831 -10.445,1.831c-5.271,0 -9.273,-1.221 -12.006,-3.662c-2.733,-2.441 -4.099,-5.451 -4.099,-9.03c0,-3.357 0.985,-6.117 2.955,-8.281c1.97,-2.164 5.604,-3.773 10.903,-4.827c6.353,-1.276 10.473,-2.171 12.359,-2.684c1.886,-0.513 3.884,-1.186 5.992,-2.018c0,-2.081 -0.43,-3.537 -1.29,-4.369c-0.86,-0.832 -2.372,-1.248 -4.536,-1.248c-2.774,0 -4.855,0.444 -6.242,1.332c-1.082,0.694 -1.956,1.997 -2.622,3.912Zm14.69,8.905c-2.33,0.832 -4.758,1.567 -7.282,2.206c-3.44,0.916 -5.618,1.817 -6.533,2.705c-0.943,0.916 -1.415,1.956 -1.415,3.121c0,1.332 0.465,2.421 1.394,3.267c0.929,0.846 2.296,1.269 4.099,1.269c1.886,0 3.641,-0.458 5.264,-1.373c1.623,-0.916 2.774,-2.032 3.454,-3.35c0.68,-1.318 1.02,-3.031 1.02,-5.139l0,-2.705Z" style="fill-rule:nonzero;"/><path d="M376.259,117.074l17.103,0l0,21.14c1.692,-1.776 3.613,-3.107 5.764,-3.995c2.15,-0.888 4.529,-1.332 7.137,-1.332c5.382,0 9.835,1.935 13.358,5.805c3.523,3.87 5.285,9.426 5.285,16.666c0,4.827 -0.805,9.079 -2.414,12.755c-1.609,3.676 -3.835,6.422 -6.679,8.24c-2.844,1.817 -5.999,2.726 -9.467,2.726c-2.968,0 -5.687,-0.638 -8.156,-1.914c-1.859,-0.999 -3.884,-2.871 -6.076,-5.618l0,6.533l-15.855,0l0,-61.006Zm16.978,38.784c0,3.801 0.714,6.554 2.143,8.26c1.429,1.706 3.239,2.559 5.431,2.559c2.025,0 3.724,-0.839 5.098,-2.518c1.373,-1.678 2.06,-4.501 2.06,-8.468c0,-3.496 -0.673,-6.062 -2.018,-7.699c-1.346,-1.637 -2.975,-2.455 -4.89,-2.455c-2.303,0 -4.182,0.853 -5.639,2.559c-1.456,1.706 -2.185,4.293 -2.185,7.761Z" style="fill-rule:nonzero;"/><path d="M424.058,165.846l16.812,-1.581c0.694,1.997 1.665,3.426 2.913,4.286c1.248,0.86 2.913,1.29 4.994,1.29c2.275,0 4.037,-0.485 5.285,-1.456c0.971,-0.721 1.456,-1.623 1.456,-2.705c0,-1.221 -0.638,-2.164 -1.914,-2.83c-0.916,-0.472 -3.343,-1.054 -7.282,-1.748c-5.881,-1.026 -9.967,-1.977 -12.255,-2.851c-2.289,-0.874 -4.217,-2.351 -5.784,-4.432c-1.567,-2.081 -2.351,-4.453 -2.351,-7.116c0,-2.913 0.846,-5.424 2.538,-7.532c1.692,-2.108 4.023,-3.683 6.991,-4.723c2.968,-1.04 6.95,-1.561 11.943,-1.561c5.271,0 9.162,0.402 11.673,1.207c2.511,0.805 4.605,2.053 6.284,3.745c1.678,1.692 3.072,3.981 4.182,6.866l-16.063,1.581c-0.416,-1.415 -1.11,-2.455 -2.081,-3.121c-1.332,-0.888 -2.941,-1.332 -4.827,-1.332c-1.914,0 -3.308,0.34 -4.182,1.02c-0.874,0.68 -1.311,1.505 -1.311,2.476c0,1.082 0.555,1.9 1.665,2.455c1.11,0.555 3.523,1.054 7.241,1.498c5.632,0.638 9.821,1.526 12.567,2.663c2.747,1.137 4.848,2.76 6.305,4.869c1.456,2.108 2.185,4.425 2.185,6.95c0,2.552 -0.77,5.035 -2.31,7.449c-1.54,2.414 -3.967,4.335 -7.282,5.764c-3.315,1.429 -7.83,2.143 -13.545,2.143c-8.073,0 -13.823,-1.151 -17.249,-3.454c-3.426,-2.303 -5.625,-5.576 -6.596,-9.821Z" style="fill-rule:nonzero;"/><circle cx="289.672" cy="169.067" r="8.991"/></g></g><path d="M180.495,115.49l58.35,-94.611l21.673,35.427l7.085,-6.252l33.343,54.599c0,0 -56.985,-6.255 -118.785,15.838c0,0 26.889,-11.195 39.595,-17.505c12.706,-6.31 26.657,-14.279 6.252,-12.087l27.091,-17.922l29.175,19.172l-17.922,-32.926l-7.085,6.669l-19.172,-30.426l-25.424,35.844l18.755,-14.171l16.672,10.003l-69.604,48.347Z"/></g></svg>